<?xml version="1.0" encoding="iso-8859-1"?>
<!-- Generator: Adobe Illustrator 19.0.0, SVG Export Plug-In . SVG Version: 6.00 Build 0)  -->
<svg version="1.1" id="Capa_1" xmlns="http://www.w3.org/2000/svg" xmlns:xlink="http://www.w3.org/1999/xlink" x="0px" y="0px"
	 viewBox="0 0 512.005 512.005" style="enable-background:new 0 0 512.005 512.005;" xml:space="preserve">
<g>
	<g>
		<path d="M486.403,459.509V189.975l23.1-23.1c3.333-3.328,3.336-8.728,0.008-12.061c-0.48-0.481-1.015-0.902-1.595-1.255
			L260.449,2.546c-2.73-1.667-6.162-1.667-8.892,0L4.09,153.559c-4.022,2.452-5.294,7.7-2.842,11.721
			c0.353,0.58,0.775,1.115,1.255,1.595l23.1,23.1v269.533c-14.132,0.015-25.585,11.468-25.6,25.6v17.067
			c0,4.713,3.82,8.533,8.533,8.533h494.933c4.713,0,8.533-3.82,8.533-8.533v-17.067
			C511.987,470.976,500.535,459.524,486.403,459.509z M22.241,162.475l233.762-142.65l233.762,142.65l-13.164,13.168L260.474,42.642
			c-2.741-1.692-6.201-1.692-8.942,0L35.405,175.643L22.241,162.475z M443.736,425.375H42.669v-17.067h426.667v17.067H443.736z
			 M469.336,442.442v17.067h-17.067v-17.067H469.336z M435.203,442.442v17.067h-17.067v-17.067H435.203z M401.069,442.442v17.067
			h-17.067v-17.067H401.069z M366.936,442.442v17.067h-17.067v-17.067H366.936z M332.803,442.442v17.067h-17.067v-17.067H332.803z
			 M298.669,442.442v17.067h-17.067v-17.067H298.669z M264.536,442.442v17.067h-17.067v-17.067H264.536z M230.403,442.442v17.067
			h-17.067v-17.067H230.403z M196.269,442.442v17.067h-17.067v-17.067H196.269z M162.136,442.442v17.067h-17.067v-17.067H162.136z
			 M128.003,442.442v17.067h-17.067v-17.067H128.003z M93.869,442.442v17.067H76.803v-17.067H93.869z M59.736,442.442v17.067H42.669
			v-17.067H59.736z M76.803,391.242v-14.483l8.533-12.8l8.533,12.8v14.483H76.803z M145.069,391.242v-14.483l8.533-12.8l8.533,12.8
			v14.483H145.069z M213.336,391.242v-14.483l8.533-12.8l8.533,12.8v14.483H213.336z M281.603,391.242v-14.483l8.533-12.8
			l8.533,12.8v14.483H281.603z M349.869,391.242v-14.483l8.533-12.8l8.533,12.8v14.483H349.869z M418.136,391.242v-14.483
			l8.533-12.8l8.533,12.8v14.483H418.136z M452.269,391.242v-17.067c-0.001-1.685-0.499-3.331-1.434-4.733l-17.067-25.6
			c-2.924-3.921-8.473-4.73-12.394-1.806c-0.686,0.512-1.295,1.12-1.806,1.806l-17.067,25.6c-0.934,1.402-1.433,3.049-1.433,4.733
			v17.067h-17.067v-17.067c-0.001-1.685-0.499-3.331-1.434-4.733l-17.067-25.6c-2.924-3.921-8.473-4.73-12.394-1.806
			c-0.686,0.512-1.295,1.12-1.806,1.806l-17.067,25.6c-0.934,1.402-1.433,3.049-1.433,4.733v17.067h-17.067v-17.067
			c-0.001-1.685-0.499-3.331-1.434-4.733l-17.067-25.6c-2.924-3.921-8.473-4.73-12.394-1.806c-0.686,0.512-1.295,1.12-1.806,1.806
			l-17.067,25.6c-0.934,1.402-1.433,3.049-1.433,4.733v17.067h-17.067v-17.067c-0.001-1.685-0.499-3.331-1.434-4.733l-17.067-25.6
			c-2.924-3.921-8.473-4.73-12.394-1.806c-0.686,0.512-1.295,1.12-1.806,1.806l-17.067,25.6c-0.934,1.402-1.433,3.049-1.433,4.733
			v17.067h-17.067v-17.067c-0.001-1.685-0.499-3.331-1.434-4.733l-17.067-25.6c-2.924-3.921-8.473-4.73-12.394-1.806
			c-0.686,0.512-1.294,1.12-1.806,1.806l-17.067,25.6c-0.934,1.402-1.433,3.049-1.433,4.733v17.067h-17.067v-17.067
			c-0.001-1.685-0.499-3.331-1.434-4.733l-17.067-25.6c-2.924-3.921-8.473-4.73-12.394-1.806c-0.686,0.512-1.295,1.12-1.806,1.806
			l-17.067,25.6c-0.934,1.402-1.433,3.049-1.433,4.733v17.067H42.669V191.208L256.003,59.929l213.333,131.279v200.033H452.269z
			 M494.936,493.642H17.069v-8.533c0.006-4.71,3.823-8.527,8.533-8.533h460.8c4.71,0.006,8.527,3.823,8.533,8.533V493.642z"/>
	</g>
</g>
<g>
	<g>
		<path d="M256.003,101.109c-32.974,0.037-59.696,26.759-59.733,59.733c0,32.99,26.744,59.733,59.733,59.733
			s59.733-26.744,59.733-59.733S288.993,101.109,256.003,101.109z M247.469,202.646c-16.74-3.451-29.82-16.531-33.271-33.271h33.271
			V202.646z M247.469,152.309h-33.271c3.451-16.74,16.531-29.82,33.271-33.271V152.309z M264.536,202.646v-33.271h33.271
			C294.356,186.115,281.276,199.196,264.536,202.646z M264.536,152.309v-33.271c16.74,3.451,29.82,16.531,33.271,33.271H264.536z"/>
	</g>
</g>
<g>
	<g>
		<path d="M170.669,220.575h-102.4c-4.713,0-8.533,3.82-8.533,8.533v85.333c0,4.713,3.82,8.533,8.533,8.533h102.4
			c4.713,0,8.533-3.82,8.533-8.533v-85.333C179.203,224.396,175.382,220.575,170.669,220.575z M110.936,305.909H76.803v-25.6h34.133
			V305.909z M110.936,263.242H76.803v-25.6h34.133V263.242z M162.136,305.909h-34.133v-25.6h34.133V305.909z M162.136,263.242
			h-34.133v-25.6h34.133V263.242z"/>
	</g>
</g>
<g>
	<g>
		<path d="M443.736,220.575h-102.4c-4.713,0-8.533,3.82-8.533,8.533v85.333c0,4.713,3.821,8.533,8.533,8.533h102.4
			c4.713,0,8.533-3.82,8.533-8.533v-85.333C452.269,224.396,448.449,220.575,443.736,220.575z M384.003,305.909h-34.133v-25.6
			h34.133V305.909z M384.003,263.242h-34.133v-25.6h34.133V263.242z M435.203,305.909h-34.133v-25.6h34.133V305.909z
			 M435.203,263.242h-34.133v-25.6h34.133V263.242z"/>
	</g>
</g>
<g>
</g>
<g>
</g>
<g>
</g>
<g>
</g>
<g>
</g>
<g>
</g>
<g>
</g>
<g>
</g>
<g>
</g>
<g>
</g>
<g>
</g>
<g>
</g>
<g>
</g>
<g>
</g>
<g>
</g>
</svg>
