<svg height="512" viewBox="0 0 60 60" width="512" xmlns="http://www.w3.org/2000/svg"><g id="Page-1" fill="none" fill-rule="evenodd"><g id="026---Mansion" fill="rgb(0,0,0)" fill-rule="nonzero"><path id="Shape" d="m1.52 33h.48v17c0 1.1045695.8954305 2 2 2h14v2c-1.1045695 0-2 .8954305-2 2v2c0 1.1045695.8954305 2 2 2h24c1.1045695 0 2-.8954305 2-2v-2c0-1.1045695-.8954305-2-2-2v-2h14c1.1045695 0 2-.8954305 2-2v-17h.48c.657922-.0002292 1.2412166-.4231777 1.4459232-1.0484429.2047067-.6252652-.0155222-1.3112807-.5459232-1.7005571l-7.38-5.361v-8.19c.4055776-.3037386.6303953-.7917076.5977206-1.2973583s-.3184246-.9606273-.7597206-1.2096417l-6.838-3.863v-5.33c-.002145-.71132678-.3832487-1.36758742-1-1.722v-2.278c0-.55228475-.4477153-1-1-1s-1 .44771525-1 1v2h-1v-2c0-.55228475-.4477153-1-1-1s-1 .44771525-1 1v2.278c-.6167513.35441258-.997855 1.01067322-1 1.722v1.373l-7.261-4.1c-.4582215-.25918652-1.0187785-.25918652-1.477 0l-7.262 4.1v-1.373c-.002145-.71132678-.3832487-1.36758742-1-1.722v-2.278c0-.55228475-.4477153-1-1-1s-1 .44771525-1 1v2h-1v-2c0-.55228475-.4477153-1-1-1s-1 .44771525-1 1v2.278c-.6167513.35441258-.997855 1.01067322-1 1.722v5.33l-6.835 3.864c-.44125041.2485651-.72728019.7030048-.76055349 1.2083556-.03327329.5053508.19070311.9933703.59555349 1.2976444v8.18l-7.39 5.38c-.5239718.3926182-.73812812 1.0763439-.53175896 1.6977192s.78701157 1.0411351 1.44175896 1.0422808zm33.48 9v4h-4v-8.9c2.3264168.4784327 3.9970017 2.5248992 4 4.9zm-6 4h-4v-4c.0029983-2.3751008 1.6735832-4.4215673 4-4.9zm7 2h2v2h-16v-2zm6 10h-24v-2h24zm-2-4h-20v-2h20zm16-8h-12c-.5522847 0-1 .4477153-1 1s.4477153 1 1 1h12v2h-16v-2c0-1.1045695-.8954305-2-2-2h-1v-4c0-3.8659932-3.1340068-7-7-7s-7 3.1340068-7 7v4h-1c-1.1045695 0-2 .8954305-2 2v2h-16v-2h12c.5522847 0 1-.4477153 1-1s-.4477153-1-1-1h-12v-13h52zm-46-29h40v14h-40zm47.006 14h-5.006v-3.637zm-17.006-26h3v4.2l-3-1.7zm-23 0h3v2.5l-3 1.7zm13-.851 19.2 10.851h-38.4zm-22 23.206v3.645h-5.008z"/><path id="Shape" d="m10 35h-2c-1.1045695 0-2 .8954305-2 2v6c0 1.1045695.8954305 2 2 2h2c1.1045695 0 2-.8954305 2-2v-6c0-1.1045695-.8954305-2-2-2zm-2 8v-6h2v6z"/><path id="Shape" d="m18 35h-2c-1.1045695 0-2 .8954305-2 2v6c0 1.1045695.8954305 2 2 2h2c1.1045695 0 2-.8954305 2-2v-6c0-1.1045695-.8954305-2-2-2zm-2 8v-6h2v6z"/><path id="Shape" d="m44 35h-2c-1.1045695 0-2 .8954305-2 2v6c0 1.1045695.8954305 2 2 2h2c1.1045695 0 2-.8954305 2-2v-6c0-1.1045695-.8954305-2-2-2zm-2 8v-6h2v6z"/><path id="Shape" d="m48 37v6c0 1.1045695.8954305 2 2 2h2c1.1045695 0 2-.8954305 2-2v-6c0-1.1045695-.8954305-2-2-2h-2c-1.1045695 0-2 .8954305-2 2zm4 6h-2v-6h2z"/><path id="Shape" d="m16 19h-2c-1.1045695 0-2 .8954305-2 2v6c0 1.1045695.8954305 2 2 2h2c1.1045695 0 2-.8954305 2-2v-6c0-1.1045695-.8954305-2-2-2zm-2 8v-6h2v6z"/><path id="Shape" d="m24 19h-2c-1.1045695 0-2 .8954305-2 2v6c0 1.1045695.8954305 2 2 2h2c1.1045695 0 2-.8954305 2-2v-6c0-1.1045695-.8954305-2-2-2zm-2 8v-6h2v6z"/><path id="Shape" d="m38 19h-2c-1.1045695 0-2 .8954305-2 2v6c0 1.1045695.8954305 2 2 2h2c1.1045695 0 2-.8954305 2-2v-6c0-1.1045695-.8954305-2-2-2zm-2 8v-6h2v6z"/><path id="Shape" d="m46 19h-2c-1.1045695 0-2 .8954305-2 2v6c0 1.1045695.8954305 2 2 2h2c1.1045695 0 2-.8954305 2-2v-6c0-1.1045695-.8954305-2-2-2zm-2 8v-6h2v6z"/></g></g></svg>